<?xml version="1.0" standalone="no"?>
<!DOCTYPE svg PUBLIC "-//W3C//DTD SVG 20010904//EN"
 "http://www.w3.org/TR/2001/REC-SVG-20010904/DTD/svg10.dtd">
<svg version="1.0" xmlns="http://www.w3.org/2000/svg"
 width="500.000000pt" height="500.000000pt" viewBox="0 0 500.000000 500.000000"
 preserveAspectRatio="xMidYMid meet">

<g transform="translate(0.000000,500.000000) scale(0.100000,-0.100000)"
fill="#000000" stroke="none">
<path d="M3415 4150 c-11 -5 -593 -582 -1294 -1283 -1071 -1072 -1274 -1279
-1274 -1302 0 -22 32 -59 159 -187 352 -354 526 -523 542 -529 9 -3 24 -4 33
-2 24 7 2566 2555 2574 2581 6 20 -10 40 -107 138 -201 204 -577 577 -590 585
-15 10 -17 10 -43 -1z m314 -424 c259 -260 283 -286 270 -302 -10 -13 -2409
-2411 -2435 -2434 -6 -5 -574 562 -574 574 0 5 30 37 66 73 l67 64 91 -90 91
-91 40 40 40 40 -90 90 -90 90 43 42 42 43 63 -63 63 -62 37 38 c20 21 37 41
37 45 0 4 -21 26 -46 49 -69 65 -72 74 -33 114 18 19 38 34 44 34 6 0 48 -38
95 -85 l84 -85 38 37 c21 20 38 41 38 45 0 4 -39 47 -86 94 l-86 86 41 41 41
42 63 -63 63 -62 37 38 c20 21 37 42 37 46 0 5 -25 33 -55 63 -30 30 -55 58
-55 62 0 4 17 24 38 44 l38 37 89 -90 89 -90 38 37 c21 20 38 42 38 48 0 5
-39 48 -85 94 l-85 83 21 26 c48 61 55 61 123 -7 l62 -61 37 38 c20 21 37 42
37 48 0 5 -25 34 -55 64 -30 30 -55 57 -55 61 0 4 17 23 37 43 l38 36 85 -85
c47 -47 90 -85 95 -85 13 0 75 62 75 74 0 6 -38 49 -85 96 l-85 86 34 37 c18
20 38 37 43 37 5 0 29 -20 54 -45 70 -72 75 -73 120 -29 l39 38 -62 63 -63 63
41 41 41 40 84 -85 c46 -47 88 -86 94 -86 12 0 75 61 75 74 0 6 -39 49 -86 97
l-86 86 38 37 c20 20 40 36 44 36 5 0 32 -25 61 -55 29 -30 57 -55 63 -55 14
0 76 61 76 75 0 6 -25 35 -55 65 -30 30 -55 59 -54 65 0 5 18 25 39 43 l39 34
69 -69 c122 -120 106 -113 152 -68 l40 39 -90 91 -90 90 35 38 c19 20 40 37
47 37 7 0 38 -26 70 -57 l58 -57 40 39 40 39 -62 63 -62 62 20 22 c48 53 387
389 393 389 3 0 134 -128 290 -284z"/>
<path d="M3430 3649 c-114 -48 -139 -213 -44 -288 120 -95 298 13 270 163 -9
46 -45 98 -81 115 -38 19 -113 24 -145 10z m98 -121 c22 -22 14 -67 -14 -80
-27 -13 -49 -5 -68 24 -17 27 8 68 42 68 15 0 33 -5 40 -12z"/>
</g>
</svg>
