<?xml version="1.0" standalone="no"?>
<!DOCTYPE svg PUBLIC "-//W3C//DTD SVG 20010904//EN"
 "http://www.w3.org/TR/2001/REC-SVG-20010904/DTD/svg10.dtd">
<svg version="1.0" xmlns="http://www.w3.org/2000/svg"
 width="512.000000pt" height="512.000000pt" viewBox="0 0 512.000000 512.000000"
 preserveAspectRatio="xMidYMid meet">

<g transform="translate(0.000000,512.000000) scale(0.100000,-0.100000)"
fill="#000000" stroke="none">
<path d="M2345 3629 c-16 -4 -55 -24 -85 -43 -30 -19 -86 -54 -125 -78 l-69
-43 -231 -5 c-209 -5 -233 -7 -265 -26 -44 -25 -80 -78 -80 -115 l0 -29 140 0
c79 0 140 -4 140 -9 0 -5 -65 -217 -145 -470 -146 -461 -146 -461 -130 -495
21 -44 76 -82 157 -109 84 -28 285 -31 368 -5 77 24 147 71 166 111 16 34 16
35 -135 495 -83 253 -151 465 -151 471 0 8 85 11 280 11 l280 0 0 -825 c0
-779 -1 -825 -17 -825 -60 0 -263 -24 -348 -41 -152 -31 -275 -94 -235 -119
23 -15 1387 -13 1396 2 13 21 -53 66 -134 92 -87 27 -234 51 -384 61 l-98 7 0
824 0 824 285 0 c157 0 285 -3 285 -7 0 -5 -65 -216 -146 -470 l-146 -462 17
-34 c20 -43 71 -79 150 -108 88 -32 281 -33 381 -2 77 24 157 85 167 125 4 15
-49 191 -147 488 l-153 465 148 3 149 3 0 28 c0 39 -38 91 -85 118 -38 22 -51
23 -258 23 -248 0 -227 -5 -388 100 -50 33 -107 64 -127 70 -45 12 -385 12
-427 -1z m-275 -1251 c0 -5 -103 -8 -230 -8 -126 0 -230 3 -230 8 0 4 50 166
112 361 l112 353 118 -353 c65 -195 118 -357 118 -361z m1440 0 c0 -5 -103 -8
-230 -8 -156 0 -230 3 -230 11 0 6 50 165 110 355 61 189 110 348 111 352 1 8
239 -699 239 -710z"/>
</g>
</svg>
